<?xml version="1.0" encoding="UTF-8"?>
<svg version="1.1" xmlns="http://www.w3.org/2000/svg" width="3284" height="2944">
<path d="M0 0 C1083.72 0 2167.44 0 3284 0 C3284 971.52 3284 1943.04 3284 2944 C2200.28 2944 1116.56 2944 0 2944 C0 1972.48 0 1000.96 0 0 Z " fill="#FEFEFE" transform="translate(0,0)"/>
<path d="M0 0 C0.45785889 0.35263916 0.91571777 0.70527832 1.38745117 1.06860352 C6.8846527 5.25236872 12.55279543 9.12579308 18.3125 12.9375 C19.71604736 13.86925049 19.71604736 13.86925049 21.14794922 14.81982422 C27.38696978 18.95343363 33.65773575 23.02642984 40 27 C42.93867536 28.85230532 45.87548002 30.70757137 48.8125 32.5625 C49.61961426 33.07184082 50.42672852 33.58118164 51.25830078 34.10595703 C57.51488185 38.05600928 63.75941267 42.02473766 70 46 C76.82461599 50.34725604 83.65594877 54.683405 90.5 59 C107.49452606 69.72078701 124.47934287 80.46394969 141.296875 91.4609375 C143.26038756 92.74483617 145.22393008 94.02868905 147.1875 95.3125 C148.17766113 95.95993164 149.16782227 96.60736328 150.18798828 97.27441406 C156.36125856 101.30260642 162.56734433 105.27184007 168.8125 109.1875 C175.70049371 113.50699161 182.48201966 117.96327603 189.22949219 122.49853516 C195.39919944 126.63188862 201.65762528 130.61155949 207.94726562 134.55932617 C213.98385269 138.3496111 219.98010395 142.19798651 225.95532227 146.08422852 C229.72363451 148.53365544 233.50565483 150.95946142 237.30078125 153.3671875 C242.96317837 156.96507755 248.57694122 160.63449901 254.1875 164.3125 C261.51361865 169.10715452 268.85397951 173.867609 276.33666992 178.4152832 C280.92764859 181.23518305 285.3348622 184.2963061 289.75424194 187.37695312 C296.17004395 191.83632271 302.70592674 196.10714494 309.25 200.375 C310.5348991 201.21473914 311.81972907 202.05458408 313.10449219 202.89453125 C321.74565366 208.54114138 330.40105404 214.1655019 339.07714844 219.75830078 C341.09797007 221.06326508 343.11570456 222.37289715 345.1328125 223.68359375 C355.02866112 230.11029996 364.98733547 236.43250707 374.97167969 242.72070312 C378.34555902 244.84866746 381.70799303 246.99446364 385.0703125 249.140625 C387.3312857 250.57558932 389.5970481 252.0015379 391.8671875 253.421875 C405.02064958 261.66590496 417.99352144 270.17568294 430.96694946 278.69857788 C437.64839333 283.08596874 444.35890557 287.42757551 451.07714844 291.75830078 C453.09797007 293.06326508 455.11570456 294.37289715 457.1328125 295.68359375 C458.54679113 296.60169169 459.96085422 297.51965954 461.375 298.4375 C462.07423584 298.8914917 462.77347168 299.3454834 463.49389648 299.81323242 C467.17386898 302.19543074 470.86832703 304.55035707 474.58984375 306.8671875 C522.91518343 336.964416 522.91518343 336.964416 539.71484375 357.4609375 C541.12249879 359.19338624 541.12249879 359.19338624 543.375 361.375 C571.32428474 389.32428474 588.66036266 427.7251777 597.48876953 465.81884766 C598.17935809 468.76522694 598.93326274 471.69435671 599.6875 474.625 C604.03208206 492.14977484 605.3413365 508.99843822 605 527 C605.88764038 526.96845825 605.88764038 526.96845825 606.79321289 526.9362793 C615.75929537 526.76647663 624.5504058 527.77923966 633.4375 528.8125 C634.23613464 528.90370117 635.03476929 528.99490234 635.85760498 529.08886719 C665.49583857 532.47397289 693.6643905 538.227768 722.07519531 547.38378906 C723.98134899 547.99402903 725.89301818 548.58695225 727.8046875 549.1796875 C735.73177622 551.70119389 743.12090888 554.78074617 750.59375 558.3828125 C753.31332318 559.673986 756.00778732 560.85211461 758.8125 561.9375 C780.2635557 570.32356708 780.2635557 570.32356708 788.6015625 576.37109375 C791.94424165 578.64128464 795.4644012 580.54854622 799 582.5 C804.01148672 585.28282213 808.91177517 588.10699946 813.6328125 591.3671875 C816.08083087 593.05575463 818.56331293 594.68732112 821.04956055 596.31884766 C837.79618024 607.35043704 853.87534797 619.08661352 868.49926758 632.84008789 C870.83430444 635.03291877 873.17740793 637.14079176 875.6875 639.1328125 C877.79099356 640.83124142 879.41132291 642.48545159 881.125 644.5625 C884.04988891 647.99606524 887.14984214 651.15941271 890.375 654.3125 C894.87336558 658.73108557 898.90373155 663.39870686 902.828125 668.33203125 C904.92203801 670.90423015 907.11395882 673.32459235 909.375 675.75 C927.05591827 695.21438481 940.53417952 719.00186944 953 742 C953.4748584 742.86915039 953.9497168 743.73830078 954.43896484 744.63378906 C969.80361074 772.8674038 981.37369853 802.45709219 989.37255859 833.57666016 C989.92400677 835.70649464 990.49714511 837.82838982 991.08203125 839.94921875 C994.59549989 853.12122667 996.89918822 866.54047714 999 880 C999.20189941 881.2772998 999.40379883 882.55459961 999.61181641 883.87060547 C1005.42322439 922.31933834 1006.04795226 963.55640994 1000 1002 C999.71866211 1003.86180908 999.71866211 1003.86180908 999.43164062 1005.76123047 C998.25836127 1013.44734935 996.97715077 1021.10890293 995.58789062 1028.75927734 C995.23144404 1030.72417436 994.88183523 1032.69035103 994.54492188 1034.65869141 C991.98513422 1049.60624369 987.12102961 1063.90207262 982.27294922 1078.23339844 C981.48061497 1080.57788114 980.69462651 1082.92453031 979.91845703 1085.27441406 C975.41162761 1098.88874913 969.94936353 1111.96534965 964 1125 C963.67078552 1125.72304321 963.34157104 1126.44608643 963.00238037 1127.19104004 C956.11027074 1142.26374493 948.58986313 1156.96668707 939.75 1171 C939.11304199 1172.01473389 938.47608398 1173.02946777 937.81982422 1174.07495117 C932.05413955 1183.13541497 925.74762448 1191.65382278 919 1200 C918.21238281 1200.98742188 917.42476562 1201.97484375 916.61328125 1202.9921875 C914.43777837 1205.68715516 912.22882649 1208.34898965 910 1211 C909.56397461 1211.52094238 909.12794922 1212.04188477 908.67871094 1212.57861328 C898.20102527 1225.06955821 887.12368442 1236.94476467 875.625 1248.5 C874.66255371 1249.46945557 874.66255371 1249.46945557 873.68066406 1250.45849609 C854.07720541 1269.99617133 830.83924187 1287.93675881 807 1302 C805.72752247 1302.76375322 804.45540256 1303.52810249 803.18359375 1304.29296875 C785.66402142 1314.77644116 768.04542366 1324.57151231 749 1332 C747.69007699 1332.52467175 746.38018008 1333.04940865 745.0703125 1333.57421875 C728.82427837 1339.96895637 711.89874353 1344.67848778 695 1349 C694.08605469 1349.25265625 693.17210938 1349.5053125 692.23046875 1349.765625 C685.47199699 1351.58335417 678.63757022 1352.84942501 671.75 1354.0625 C670.83412109 1354.22492188 669.91824219 1354.38734375 668.97460938 1354.5546875 C654.06318271 1357.11093207 639.7241529 1358.29356936 624.62207031 1358.24291992 C622.73459813 1358.24399567 620.84712627 1358.24593867 618.95965576 1358.24867249 C613.88608291 1358.25347331 608.81259955 1358.24592822 603.73903751 1358.23571944 C598.41316407 1358.22687246 593.08729287 1358.22869758 587.76141357 1358.2290802 C578.83474242 1358.22814735 569.90810553 1358.21950965 560.98144531 1358.20581055 C550.66108191 1358.19003121 540.34075581 1358.18481464 530.02038121 1358.1855461 C519.01213389 1358.1862209 508.00390092 1358.17929025 496.99565792 1358.1700995 C493.82760247 1358.1679684 490.65954933 1358.16725839 487.49149323 1358.16686058 C482.52391949 1358.16585752 477.55637716 1358.15976395 472.58881378 1358.14969444 C470.76506747 1358.14677052 468.94131754 1358.14554386 467.11756897 1358.14612198 C464.63248396 1358.14661174 462.14748727 1358.14096642 459.66241455 1358.13371277 C458.57566936 1358.13603567 458.57566936 1358.13603567 457.46696973 1358.1384055 C454.16763981 1358.12245353 451.15517052 1358.01980033 448 1357 C449.40168317 1352.79495048 452.39447442 1351.54851038 456 1349.3125 C456.74113037 1348.84263672 457.48226074 1348.37277344 458.24584961 1347.88867188 C459.90645346 1346.83607445 461.5692744 1345.78696944 463.23388672 1344.74072266 C468.35771681 1341.51628236 473.4601779 1338.25833174 478.5625 1335 C479.64088135 1334.31172119 480.7192627 1333.62344238 481.83032227 1332.91430664 C489.04883507 1328.29144867 496.15308225 1323.5373297 503.1875 1318.640625 C517.34227834 1308.79446643 531.818798 1299.34843396 546.4453125 1290.21875 C559.90806862 1281.7867123 573.08456376 1272.94910752 586.25 1264.0625 C587.67249054 1263.10262177 587.67249054 1263.10262177 589.12371826 1262.12335205 C591.88037192 1260.26212063 594.63582707 1258.39913304 597.390625 1256.53515625 C598.20981415 1255.98133774 599.0290033 1255.42751923 599.87301636 1254.85691833 C604.88312067 1251.46122213 609.85639543 1248.01672797 614.80815125 1244.53648376 C616.69927517 1243.2108078 618.59754628 1241.89736497 620.50390625 1240.59375 C622.01791016 1239.55734375 622.01791016 1239.55734375 623.5625 1238.5 C624.57441406 1237.8090625 625.58632812 1237.118125 626.62890625 1236.40625 C628.53658979 1235.09776919 630.28538327 1233.75208335 632.03442383 1232.23266602 C637.73230396 1227.3677614 642.19047778 1225.80355419 649.5625 1224.9375 C651.59225465 1224.64028889 653.62088712 1224.33533144 655.6484375 1224.0234375 C657.21029785 1223.78512207 657.21029785 1223.78512207 658.80371094 1223.54199219 C671.19477615 1221.44084914 684.00689352 1218.50640062 695.4375 1213.17578125 C697.54534055 1212.20861661 699.62408412 1211.37536248 701.796875 1210.57421875 C720.19379336 1203.76572406 738.25972125 1194.74153479 754 1183 C755.11479776 1182.21923297 756.2321959 1181.44217133 757.3515625 1180.66796875 C764.71339701 1175.55403781 771.43624405 1170.12463143 778 1164 C779.28766902 1162.8911739 780.5791964 1161.78680879 781.875 1160.6875 C789.72501647 1153.8247067 797.28393398 1146.50303537 803.40234375 1138.03515625 C805 1136 805 1136 807.3203125 1133.7421875 C810.57361407 1130.41300718 813.2316256 1126.8410633 815.9375 1123.0625 C816.49453613 1122.2876123 817.05157227 1121.51272461 817.62548828 1120.71435547 C824.48005203 1111.06528286 830.77412903 1101.0619926 837 1091 C837.56823486 1090.09193604 837.56823486 1090.09193604 838.14794922 1089.16552734 C847.72625116 1073.81044721 854.49670679 1057.18239633 860 1040 C860.32258789 1039.00460205 860.64517578 1038.0092041 860.97753906 1036.98364258 C863.44181608 1029.21038438 865.39915221 1021.40470739 867.125 1013.4375 C867.37636719 1012.30892578 867.62773437 1011.18035156 867.88671875 1010.01757812 C872.71663028 988.03010131 874.34929567 966.28607175 874.26074219 943.80200195 C874.24992652 940.54034194 874.26076619 937.27922268 874.2734375 934.01757812 C874.28134052 922.81778061 873.90302511 912.05805019 872 901 C871.84869629 900.00202393 871.69739258 899.00404785 871.54150391 897.97583008 C869.82334336 886.65001588 867.60804919 875.66830774 864.16015625 864.7421875 C862.83526598 860.46863573 861.77106319 856.16834757 860.7734375 851.80859375 C853.82199282 826.5657214 840.454381 802.89827788 826.32910156 781.06787109 C824.60103538 778.37927436 822.92971325 775.65648788 821.25 772.9375 C817.86238132 767.64079165 814.03701174 762.81389373 810 758 C809.36433105 757.22897949 809.36433105 757.22897949 808.71582031 756.44238281 C798.99282724 744.65925663 788.49606124 733.34751335 776.77734375 723.51171875 C775.5498551 722.46767895 774.35573832 721.3835682 773.19140625 720.26953125 C765.27803272 712.78807674 756.06347863 706.97563703 747 701 C745.906875 700.27683594 744.81375 699.55367187 743.6875 698.80859375 C706.88873839 675.36895704 663.48236086 658.36545333 620 654 C619.11240997 653.91012314 618.22481995 653.82024628 617.31033325 653.72764587 C590.65878692 651.18301759 563.83350456 651.55639761 537.08978271 651.39910889 C530.52530153 651.35855254 523.9609001 651.30770067 517.39648438 651.2578125 C504.59771387 651.16201305 491.79889699 651.07696149 479 651 C479.00184359 650.45705606 479.00368717 649.91411213 479.00558662 649.35471535 C479.0501768 636.00997858 479.08292446 622.66525524 479.10362434 609.32045937 C479.1139774 602.86644298 479.1279778 596.41248112 479.15087891 589.95849609 C479.17291456 583.70793512 479.18463199 577.45742595 479.18975449 571.20682907 C479.193396 568.8447221 479.200503 566.48261735 479.21146011 564.12053299 C479.4157792 518.16655985 473.36870076 477.08665697 443 441 C440.45349259 438.52577337 437.7258888 436.27392797 435 434 C433.83404297 433.01966797 433.83404297 433.01966797 432.64453125 432.01953125 C427.64456024 427.90985714 422.51174297 424.29649774 417.01171875 420.890625 C414.2884034 419.18104701 411.61550763 417.41124669 408.95214844 415.61010742 C399.7499923 409.38967612 390.30969167 403.57836071 380.85058594 397.75927734 C375.9501546 394.73491042 371.06897203 391.67984132 366.1875 388.625 C365.19387451 388.00326904 364.20024902 387.38153809 363.17651367 386.7409668 C361.14839856 385.47190467 359.12032265 384.20277991 357.09228516 382.93359375 C353.94194905 380.96370097 350.78961468 378.99704272 347.63671875 377.03125 C346.58782471 376.37688965 345.53893066 375.7225293 344.45825195 375.04833984 C342.48718205 373.81878179 340.51570484 372.58987629 338.54370117 371.36181641 C325.34464824 363.12389512 312.35075337 354.60566325 299.42108154 345.95339966 C286.97111261 337.62402274 274.51261212 329.31300369 261.92578125 321.19140625 C257.97120114 318.6377723 254.03633843 316.05476252 250.10546875 313.46484375 C238.1822959 305.6132039 226.24192604 297.82899153 214.06689453 290.37036133 C207.14555068 286.12158161 200.37590936 281.67610054 193.65380859 277.12011719 C181.30736803 268.75792804 168.72687618 260.81556035 156.04443359 252.9765625 C148.6616872 248.41320623 141.29712004 243.82160495 133.94140625 239.21484375 C131.90990502 237.94362266 129.87700322 236.67466681 127.84375 235.40625 C126.80021362 234.75499146 126.80021362 234.75499146 125.7355957 234.09057617 C124.43746774 233.28050347 123.13915095 232.47073321 121.84057617 231.66137695 C119.89147451 230.44445685 117.94524494 229.22307588 116 228 C114.81531128 227.2565332 114.81531128 227.2565332 113.60668945 226.49804688 C106.28754619 221.87557269 99.08682096 217.08602817 91.89505005 212.26919556 C60.21421704 190.88506569 60.21421704 190.88506569 27.85302734 170.56176758 C21.81502311 166.9320146 15.96764407 163.04544381 10.13671875 159.09375 C9.10160156 158.4028125 8.06648438 157.711875 7 157 C6.11957031 156.3915625 5.23914062 155.783125 4.33203125 155.15625 C2.15245539 153.80615446 2.15245539 153.80615446 0.15576172 154.24072266 C-2.46597235 155.16411937 -4.50628081 156.4555493 -6.82421875 157.9921875 C-8.23078735 158.91801636 -8.23078735 158.91801636 -9.66577148 159.86254883 C-10.66294189 160.52665771 -11.6601123 161.1907666 -12.6875 161.875 C-14.77589366 163.25152666 -16.86443641 164.62782715 -18.953125 166.00390625 C-20.49709961 167.02508545 -20.49709961 167.02508545 -22.07226562 168.06689453 C-26.01399679 170.66951523 -29.97168419 173.24677081 -33.9375 175.8125 C-34.61562744 176.25182861 -35.29375488 176.69115723 -35.99243164 177.14379883 C-40.67268029 180.16682346 -45.3910546 183.12446544 -50.125 186.0625 C-55.99426599 189.70554226 -61.76701381 193.47076071 -67.50097656 197.32275391 C-72.73370046 200.83552573 -78.02264276 204.25304528 -83.33203125 207.6484375 C-85.96143153 209.33050673 -88.5824189 211.02495695 -91.19921875 212.7265625 C-98.85899518 217.70614783 -106.54384186 222.61804527 -114.36328125 227.34375 C-116.67581571 228.79636424 -118.84718022 230.32274373 -121 232 C-120.69047003 235.09860312 -120.42947724 236.5965872 -118.12133789 238.76464844 C-117.30914795 239.2909082 -116.49695801 239.81716797 -115.66015625 240.359375 C-114.29914795 241.25366211 -114.29914795 241.25366211 -112.91064453 242.16601562 C-111.95013184 242.77123047 -110.98961914 243.37644531 -110 244 C-109.07687012 244.58974609 -108.15374023 245.17949219 -107.20263672 245.78710938 C-104.29270854 247.62770544 -101.36748001 249.44151392 -98.4375 251.25 C-91.31601803 255.67209183 -84.21180303 260.11237724 -77.1875 264.6875 C-68.96989969 270.03709356 -60.68344475 275.27358815 -52.38525391 280.49707031 C-50.06110836 281.9614961 -47.73911211 283.42925869 -45.41796875 284.8984375 C-37.75632705 289.74694765 -30.0833318 294.57599542 -22.38842773 299.37158203 C-12.80944721 305.34263252 -3.25982489 311.35681534 6.25 317.4375 C7.74781006 318.39414551 7.74781006 318.39414551 9.27587891 319.37011719 C15.30511257 323.23405642 21.28018882 327.17189801 27.23193359 331.15405273 C30.86184929 333.57474356 34.51936652 335.95028444 38.1875 338.3125 C39.64195285 339.25126216 41.09637913 340.19006549 42.55078125 341.12890625 C43.28248535 341.60086426 44.01418945 342.07282227 44.76806641 342.55908203 C47.00702986 344.00453842 49.24407707 345.45291199 51.48046875 346.90234375 C64.75705455 355.5069678 78.11724803 363.97494191 91.49609375 372.41943359 C96.2876405 375.44405076 101.07837794 378.46995019 105.86865234 381.49658203 C109.85073572 384.01231502 113.83416476 386.52586738 117.8203125 389.03515625 C126.03728854 394.21069196 134.22852634 399.42099435 142.37109375 404.71289062 C148.26313651 408.53726283 154.19236849 412.30149086 160.125 416.0625 C167.01421523 420.43373066 173.85909528 424.85706064 180.62988281 429.40942383 C184.84598723 432.24165532 189.10047772 435.00691151 193.375 437.75 C201.37630293 442.89101283 209.27617543 448.18094236 217.18032837 453.46936035 C228.92478891 461.32589247 240.702308 469.09509904 252.69970703 476.56201172 C257.19110844 479.36973346 261.65690977 482.21788466 266.125 485.0625 C267.05425293 485.65393799 267.98350586 486.24537598 268.94091797 486.85473633 C276.64512442 491.76353301 284.32017521 496.71620432 291.98193359 501.69091797 C293.99299412 502.99545541 296.00590765 504.29707908 298.01953125 505.59765625 C299.02838379 506.24951904 299.02838379 506.24951904 300.05761719 506.91455078 C301.44467744 507.81053797 302.83205129 508.70603984 304.21972656 509.60107422 C308.27599942 512.2217824 312.31494475 514.86648102 316.33984375 517.53515625 C327.37516454 524.83046495 338.52255449 531.79650913 350.01977539 538.3449707 C350.96199951 538.883396 351.90422363 539.42182129 352.875 539.9765625 C353.69742187 540.44143066 354.51984375 540.90629883 355.3671875 541.38525391 C356.23601562 541.91812012 357.10484375 542.45098633 358 543 C358.57961525 543.32538504 359.1592305 543.65077009 359.75640985 543.98601528 C363.37303165 546.21896256 364.79843924 547.21364277 365.88895082 551.46810019 C365.93112498 552.82804913 365.93514196 554.18951189 365.90882111 555.54986 C365.92199116 556.30534832 365.93516121 557.06083665 365.94873035 557.83921856 C365.98440745 560.38004453 365.97014789 562.91813397 365.95617676 565.45913696 C365.97139905 567.29530026 365.98964093 569.1314406 366.01064825 570.96754682 C366.05938461 576.02030223 366.06416018 581.07229693 366.06166315 586.12525201 C366.06639841 591.57206947 366.11110346 597.01858221 366.15029907 602.46524048 C366.22817066 614.37852781 366.25377935 626.29158965 366.26959419 638.20509768 C366.2798544 645.64317692 366.30170367 653.08119285 366.32609558 660.51923752 C366.39217571 681.11089359 366.44748725 701.70248972 366.45572662 722.29426003 C366.45625734 723.61237186 366.45678805 724.93048369 366.45733485 726.2885383 C366.45810903 728.29160801 366.45886936 730.29467772 366.45962041 732.29774743 C366.46037385 734.30673397 366.46114345 736.3157205 366.46191406 738.32470703 C366.46215676 738.98855409 366.46239946 739.65240115 366.46264952 740.33636479 C366.47075092 761.1890835 366.54451563 782.04071819 366.66699219 802.89306641 C366.80459308 826.32201999 366.88415193 849.75029388 366.88419676 873.17968023 C366.88561908 885.58449884 366.91388245 897.9879443 367.0113678 910.39241409 C367.09398488 920.95575429 367.11806462 931.51720712 367.0661158 942.08077772 C367.04132379 947.47075837 367.04390604 952.85702501 367.12070084 958.24659729 C367.19038506 963.18488633 367.18111149 968.11660205 367.10979217 973.05480973 C367.09777617 974.8375291 367.11431567 976.6207256 367.16276556 978.40282698 C367.491856 991.34786856 367.491856 991.34786856 363.33523834 995.77183864 C359.24234776 999.09180756 354.77647939 1001.58163892 350.0759775 1003.93277614 C347.11238708 1005.45630634 344.38924786 1007.24630919 341.609375 1009.08203125 C340.64427002 1009.69643066 339.67916504 1010.31083008 338.68481445 1010.94384766 C329.8318846 1016.58067696 321.02608291 1022.27487672 312.3125 1028.125 C302.51158173 1034.70279123 292.5792191 1041.05839504 282.59765625 1047.35791016 C280.1861873 1048.88230303 277.77966197 1050.41411826 275.375 1051.94921875 C261.38868538 1060.86008724 247.18823229 1069.4164336 233 1078 C221.38006794 1085.03137327 209.87505772 1092.22275336 198.4296875 1099.53515625 C193.52732568 1102.66717275 188.61006297 1105.77486634 183.6875 1108.875 C175.19670487 1114.22661499 166.74338123 1119.63598979 158.29589844 1125.05566406 C153.36499792 1128.21673165 148.42863628 1131.36734417 143.46484375 1134.4765625 C142.61148437 1135.01152344 141.758125 1135.54648438 140.87890625 1136.09765625 C139.31705972 1137.07474744 137.75342239 1138.0489856 136.1875 1139.01953125 C125.9386692 1144.69025821 125.9386692 1144.69025821 120 1154 C120.7226001 1154.26844727 121.4452002 1154.53689453 122.18969727 1154.81347656 C124.98815492 1155.99499895 127.39698215 1157.3663042 129.96484375 1158.984375 C130.91810547 1159.5825 131.87136719 1160.180625 132.85351562 1160.796875 C133.87123047 1161.44140625 134.88894531 1162.0859375 135.9375 1162.75 C137.00291016 1163.4203125 138.06832031 1164.090625 139.16601562 1164.78125 C147.02554507 1169.73242781 154.86257094 1174.7192035 162.69140625 1179.71875 C169.57682394 1184.11117163 176.50259975 1188.43624132 183.4375 1192.75 C190.55078601 1197.17841066 197.6052688 1201.66565152 204.54589844 1206.35986328 C210.32541998 1210.25658831 216.22707414 1213.95259272 222.13012695 1217.65844727 C228.49691082 1221.66257018 234.77174803 1225.7829544 241 1230 C244.32064347 1232.21376231 245.14856986 1232.55178082 249 1232 C251.34664541 1230.66412629 253.44272324 1229.31529186 255.625 1227.75 C256.96985467 1226.82074278 258.31628256 1225.89375934 259.6640625 1224.96875 C260.37208008 1224.48019531 261.08009766 1223.99164062 261.80957031 1223.48828125 C265.48587441 1220.99042684 269.23890308 1218.61754308 273 1216.25 C274.18166748 1215.50508301 274.18166748 1215.50508301 275.38720703 1214.74511719 C282.68909002 1210.16166529 290.05925823 1205.69210955 297.43139648 1201.22290039 C310.06520274 1193.55226154 322.52980561 1185.61752258 334.94921875 1177.60546875 C338.25806278 1175.47321812 341.57568496 1173.35492704 344.89453125 1171.23828125 C357.29036637 1163.32967288 369.61534787 1155.34381513 381.796875 1147.109375 C389.31066644 1142.05772991 396.9402815 1137.19900424 404.58544922 1132.34912109 C410.30511708 1128.71972304 416.00760155 1125.06629185 421.6875 1121.375 C427.59626186 1117.5369442 433.53747291 1113.75396084 439.5 1110 C445.66706187 1106.11578012 451.81720723 1102.20756637 457.9375 1098.25 C458.57429688 1097.83878906 459.21109375 1097.42757813 459.8671875 1097.00390625 C461.13161273 1096.18422772 462.38368612 1095.3451448 463.62194538 1094.48644924 C466 1093 466 1093 468.98891735 1091.69788456 C473.11599563 1089.63444601 477.05686123 1087.65216136 478.68782067 1083.06580806 C479.82204706 1076.96665637 479.51222655 1070.75151168 479.37817383 1064.57788086 C479.37642393 1062.47470909 479.37995785 1060.37152733 479.38835144 1058.26837158 C479.3960847 1052.5362404 479.32934366 1046.80707792 479.24965882 1041.07558513 C479.1776595 1034.97692802 479.17417774 1028.87820707 479.1627655 1022.77919006 C479.13052831 1011.11973261 479.03649501 999.46160482 478.92077035 987.80271012 C478.79582795 974.92042187 478.7391455 962.03817678 478.68898606 949.1554153 C478.56492549 918.10260054 478.30160218 887.05152998 478 856 C477.97661048 853.57191223 477.95323147 851.14382436 477.92986298 848.71573639 C477.86098102 841.58017497 477.79097988 834.44462502 477.72021484 827.30908203 C477.70985364 826.26371395 477.69949244 825.21834587 477.68881726 824.14129996 C477.47896557 803.09396549 477.23634544 782.04707511 477 761 C520.23 761 563.46 761 608 761 C608 890.69 608 1020.38 608 1154 C605.03 1155.65 602.06 1157.3 599 1159 C597.04691441 1160.19121184 595.10515711 1161.40136626 593.1796875 1162.63671875 C591.64671021 1163.61838013 591.64671021 1163.61838013 590.08276367 1164.61987305 C589.02420166 1165.30218994 587.96563965 1165.98450684 586.875 1166.6875 C585.76552002 1167.40010986 584.65604004 1168.11271973 583.51293945 1168.84692383 C577.12438842 1172.95907853 570.76845664 1177.11433104 564.45922852 1181.34692383 C551.92137631 1189.75626668 539.2682947 1197.91759806 526.28588867 1205.625 C519.57737862 1209.61949036 513.01824894 1213.80967776 506.484375 1218.08203125 C501.31380274 1221.46018516 496.09245006 1224.75741853 490.875 1228.0625 C483.99762696 1232.42584317 477.16517576 1236.84222914 470.40527344 1241.38525391 C462.305143 1246.8246763 454.08605559 1252.08202278 445.88232422 1257.36328125 C437.88070537 1262.51579666 429.90960046 1267.70705823 422 1273 C413.39259484 1278.75989831 404.70806023 1284.39383726 396 1290 C393.41563484 1291.66507236 390.83240362 1293.33188714 388.25 1295 C387.57525635 1295.43538086 386.9005127 1295.87076172 386.20532227 1296.31933594 C381.55013375 1299.33007663 376.91543602 1302.37099327 372.2890625 1305.42578125 C360.13600491 1313.44377913 347.95536552 1321.35095759 335.47558594 1328.85595703 C324.16796271 1335.66952488 313.08948651 1342.83884946 302 1350 C300.48441002 1350.97661684 298.96878849 1351.95318474 297.453125 1352.9296875 C291.49655865 1356.77249766 285.55384881 1360.63615532 279.62109375 1364.515625 C269.94942326 1370.83846109 260.26069249 1377.12773332 250.5 1383.3125 C242.51590755 1388.37381925 234.60579184 1393.52750833 226.76660156 1398.81005859 C223.66172951 1400.90142763 220.55046108 1402.98319549 217.4375 1405.0625 C216.8177832 1405.4764502 216.19806641 1405.89040039 215.55957031 1406.31689453 C210.75976676 1409.51383021 205.91729719 1412.64026326 201.05834961 1415.74633789 C197.34441472 1418.12407558 193.66320681 1420.54492365 190 1423 C177.50149225 1431.36553507 164.76176989 1439.3266467 151.87890625 1447.0859375 C138.99504552 1454.86129617 126.32617203 1462.90910556 113.75927734 1471.18603516 C109.39189419 1474.05717804 105.00879297 1476.9039996 100.625 1479.75 C99.80652588 1480.28157715 98.98805176 1480.8131543 98.14477539 1481.36083984 C96.53900643 1482.40364737 94.93313301 1483.44629409 93.32714844 1484.48876953 C91.06362088 1485.95868514 88.80129645 1487.43043832 86.5390625 1488.90234375 C79.19033393 1493.6778137 71.80910872 1498.39238791 64.36791992 1503.02246094 C54.86516423 1508.94103638 45.43193595 1514.96943084 36 1521 C35.21383301 1521.50208984 34.42766602 1522.00417969 33.61767578 1522.52148438 C31.45129513 1523.90683401 29.2874727 1525.29605945 27.125 1526.6875 C26.44928955 1527.1208667 25.7735791 1527.5542334 25.07739258 1528.00073242 C21.51206208 1530.30604027 18.01730068 1532.68088926 14.5703125 1535.16015625 C13.84569824 1535.67682861 13.12108398 1536.19350098 12.37451172 1536.72583008 C10.99405142 1537.71620167 9.6226269 1538.71933549 8.26220703 1539.73706055 C3.7445823 1542.97412194 3.7445823 1542.97412194 0.52734375 1543.0859375 C-3.11274736 1541.52187981 -6.36532586 1539.52365033 -9.6875 1537.375 C-10.76076538 1536.6934082 -10.76076538 1536.6934082 -11.85571289 1535.99804688 C-15.62047259 1533.59118796 -19.31177224 1531.11302449 -22.9375 1528.5 C-27.16609907 1525.47351103 -31.56819334 1522.85467217 -36.0625 1520.25 C-44.16937471 1515.54946561 -52.03234819 1510.53524213 -59.86621094 1505.39550781 C-62.72748338 1503.52422254 -65.60193082 1501.67369571 -68.47607422 1499.82226562 C-74.47836688 1495.95439424 -80.44830836 1492.04521767 -86.375 1488.0625 C-92.01982274 1484.27128022 -97.74074562 1480.6147534 -103.5 1477 C-109.8851896 1472.99238299 -116.2045483 1468.9077756 -122.46166992 1464.70336914 C-127.57239771 1461.2724717 -132.73175925 1457.92200422 -137.90649414 1454.58862305 C-142.28920669 1451.76217903 -146.65787799 1448.91559641 -151.015625 1446.05078125 C-162.78973929 1438.3132264 -174.61614963 1430.68528727 -186.58325195 1423.24755859 C-195.12527332 1417.9364057 -203.57806162 1412.49898525 -212 1407 C-215.29075197 1404.85276047 -218.58238817 1402.70688656 -221.875 1400.5625 C-222.71087646 1400.01795166 -223.54675293 1399.47340332 -224.40795898 1398.91235352 C-230.17819244 1395.16172957 -235.98475818 1391.47298762 -241.8125 1387.8125 C-247.94025345 1383.9610183 -254.00785337 1380.03868267 -260.01464844 1376.00146484 C-272.13388398 1367.86518231 -284.39511678 1359.93433957 -296.6875 1352.0625 C-300.75625769 1349.45519346 -304.79748203 1346.81430449 -308.8125 1344.125 C-325.58657614 1332.89808211 -342.62983159 1322.0333065 -359.7890625 1311.40625 C-371.13739267 1304.37515776 -382.33072024 1297.16765567 -393.4069519 1289.71862793 C-401.77470618 1284.09462732 -410.24212832 1278.67383361 -418.84350586 1273.4140625 C-425.11890557 1269.5707555 -431.25418866 1265.55756699 -437.35546875 1261.4453125 C-450.50649284 1252.5877005 -463.96720495 1244.18328506 -477.35009766 1235.68310547 C-483.84304742 1231.55905944 -490.33356149 1227.43167729 -496.8046875 1223.2734375 C-506.78500982 1216.86159894 -516.77762963 1210.47633185 -526.875 1204.25 C-541.44473757 1195.26587664 -555.88236771 1186.1027017 -570.20654297 1176.73168945 C-577.11233403 1172.21850616 -584.04343371 1167.74702528 -591 1163.3125 C-591.90145752 1162.7364502 -592.80291504 1162.16040039 -593.73168945 1161.56689453 C-595.00919067 1160.75454346 -595.00919067 1160.75454346 -596.3125 1159.92578125 C-597.05113281 1159.45567627 -597.78976562 1158.98557129 -598.55078125 1158.5012207 C-600.56774043 1157.26494858 -602.59787241 1156.07667401 -604.65307617 1154.90617371 C-606.30980347 1153.96261772 -606.30980347 1153.96261772 -608 1153 C-608.1287391 1113.31504747 -608.25624196 1073.63009114 -608.38218227 1033.94512963 C-608.39719499 1029.21480319 -608.4122175 1024.48447678 -608.42724609 1019.75415039 C-608.43023671 1018.81278709 -608.43322732 1017.87142379 -608.43630856 1016.90153433 C-608.4841792 1001.84045834 -608.53283595 986.779385 -608.58180541 971.71831255 C-608.63237705 956.15883161 -608.68205263 940.59934798 -608.73096704 925.03986174 C-608.75832554 916.34481424 -608.78604618 907.64976826 -608.81480408 898.95472527 C-608.91115814 869.7734923 -609.00457161 840.59233266 -609.01342773 811.41091919 C-609.01366192 810.64041032 -609.01389611 809.86990145 -609.01413739 809.07604383 C-609.01812187 793.05069355 -609.00714182 777.02534897 -609 761 C-566.43 761 -523.86 761 -480 761 C-480 866.93 -480 972.86 -480 1082 C-478.35 1082.66 -476.7 1083.32 -475 1084 C-473.2175293 1085.16992188 -473.2175293 1085.16992188 -471.57421875 1086.46875 C-470.9517627 1086.95174561 -470.32930664 1087.43474121 -469.68798828 1087.93237305 C-469.02782715 1088.44968994 -468.36766602 1088.96700684 -467.6875 1089.5 C-461.86283865 1093.96114598 -455.95320383 1098.04737769 -449.69262695 1101.86621094 C-443.16394319 1105.8587671 -436.76927502 1110.0465031 -430.375 1114.25 C-422.3123203 1119.54612369 -414.22004928 1124.7880988 -406.0625 1129.9375 C-396.41707678 1136.03249354 -386.91820467 1142.33538518 -377.44750977 1148.69702148 C-371.4967654 1152.68944057 -365.51125859 1156.60929814 -359.4543457 1160.4387207 C-356.16313705 1162.53235239 -352.92218946 1164.69549866 -349.6875 1166.875 C-344.28821876 1170.49267006 -338.85701153 1174.05323183 -333.38012695 1177.55224609 C-330.35104468 1179.48755111 -327.33096091 1181.43431548 -324.328125 1183.41015625 C-315.40106176 1189.26815477 -306.32919613 1194.86053526 -297.1875 1200.375 C-286.43873645 1206.86105795 -275.83763899 1213.5343658 -265.35791016 1220.44824219 C-261.31365912 1223.10979319 -257.24919995 1225.74018942 -253.1875 1228.375 C-246.87834966 1232.47392256 -240.57445709 1236.58084352 -234.27368164 1240.69262695 C-220.11951329 1249.92918747 -205.96476596 1259.15676492 -191.66064453 1268.15991211 C-184.79218315 1272.48719532 -177.95754922 1276.86629152 -171.125 1281.25 C-163.91708626 1285.87235563 -156.69495911 1290.45462159 -149.3828125 1294.91015625 C-143.83571884 1298.33705591 -138.35075841 1301.86154144 -132.85571289 1305.37109375 C-126.86379252 1309.19264452 -120.84747661 1312.97185767 -114.81103516 1316.72265625 C-104.51232198 1323.12300504 -94.33994988 1329.66856929 -84.29101562 1336.45361328 C-71.03535524 1345.40090153 -57.68783389 1354.1636419 -44.13671875 1362.65673828 C-36.71681836 1367.32130546 -29.35634266 1372.07817131 -22.0625 1376.9375 C-21.10472656 1377.57429688 -20.14695312 1378.21109375 -19.16015625 1378.8671875 C-16.77577736 1380.4764222 -14.41371268 1382.10678959 -12.05859375 1383.7578125 C-11.04817017 1384.45596069 -11.04817017 1384.45596069 -10.01733398 1385.16821289 C-8.69585198 1386.08155958 -7.38121776 1387.00491322 -6.07446289 1387.93920898 C-2.8772178 1390.32224418 -2.8772178 1390.32224418 0.91259766 1390.79345703 C3.41156501 1389.84355716 5.42128467 1388.5952925 7.6484375 1387.11328125 C8.56012695 1386.51169189 9.47181641 1385.91010254 10.41113281 1385.2902832 C11.38920898 1384.63761475 12.36728516 1383.98494629 13.375 1383.3125 C15.46024768 1381.93645409 17.54620268 1380.56147952 19.6328125 1379.1875 C20.6940332 1378.48753906 21.75525391 1377.78757812 22.84863281 1377.06640625 C27.62087207 1373.93716601 32.43146558 1370.86981259 37.25 1367.8125 C38.1562915 1367.23693359 39.06258301 1366.66136719 39.99633789 1366.06835938 C46.71343746 1361.80705795 53.44286371 1357.56532568 60.17333984 1353.32519531 C65.26698817 1350.11074666 70.32794646 1346.8495066 75.375 1343.5625 C81.79538706 1339.38164132 88.28812886 1335.32892138 94.8125 1331.3125 C110.05199851 1322.05112472 110.05199851 1322.05112472 124 1311 C123.61547049 1308.64067272 123.31377356 1307.31213705 121.59570312 1305.60302734 C120.99693359 1305.1848877 120.39816406 1304.76674805 119.78125 1304.3359375 C119.10497559 1303.85882324 118.42870117 1303.38170898 117.73193359 1302.89013672 C116.99539551 1302.3901416 116.25885742 1301.89014648 115.5 1301.375 C114.73896973 1300.84793457 113.97793945 1300.32086914 113.19384766 1299.77783203 C107.36231649 1295.79377217 101.36341585 1292.16413082 95.24047852 1288.64990234 C89.86182664 1285.55319666 84.70269865 1282.21344842 79.56689453 1278.73193359 C75.35436413 1275.88283133 71.08201845 1273.16317678 66.75 1270.5 C54.6157199 1263.00796061 42.8425398 1254.94159937 31 1247 C15.58620481 1236.6721146 0.07952331 1226.48708892 -15.4453125 1216.32714844 C-18.30925271 1214.45284695 -21.17051101 1212.57449691 -24.03125 1210.6953125 C-32.7800488 1204.9696428 -41.68490255 1199.52807676 -50.6328125 1194.11938477 C-56.61744036 1190.48906249 -62.49843325 1186.75470627 -68.29174805 1182.82788086 C-79.30922505 1175.37652751 -90.61035008 1168.33143408 -101.91479492 1161.32519531 C-110.13524279 1156.22910817 -118.22870117 1150.9466724 -126.31509399 1145.64111328 C-137.47594307 1138.32012129 -148.71811289 1131.13295193 -160 1124 C-161.58209816 1122.99750143 -163.16413129 1121.9949002 -164.74609375 1120.9921875 C-172.48350285 1116.09272365 -180.23931206 1111.22384157 -188.01098633 1106.37890625 C-196.80832695 1100.89427648 -205.5726002 1095.37009407 -214.26000977 1089.71289062 C-219.36041816 1086.39697071 -224.51818216 1083.18539625 -229.7109375 1080.015625 C-233.38531753 1077.76386717 -237.03695799 1075.47759986 -240.6875 1073.1875 C-246.39587279 1069.61141891 -252.12562301 1066.07227238 -257.875 1062.5625 C-258.62410645 1062.10512451 -259.37321289 1061.64774902 -260.14501953 1061.17651367 C-263.9409863 1058.86081954 -267.74023466 1056.55065704 -271.54296875 1054.24609375 C-279.50525248 1049.41283275 -287.3939468 1044.49288054 -295.19262695 1039.3996582 C-301.32398449 1035.40683772 -307.53314975 1031.54545169 -313.75 1027.6875 C-323.3093577 1021.74529867 -332.70588784 1015.59478944 -342.046875 1009.31640625 C-346.8963861 1006.058916 -351.78243227 1002.8605953 -356.6875 999.6875 C-357.40091553 999.22504883 -358.11433105 998.76259766 -358.84936523 998.28613281 C-362.34776152 996.01094919 -362.34776152 996.01094919 -366 994 C-366.5036685 936.9114862 -366.89131238 879.82319249 -367.12343725 822.73289298 C-367.15087768 815.99135834 -367.179402 809.24982848 -367.20849609 802.50830078 C-367.21137279 801.8374522 -367.21424949 801.16660361 -367.21721336 800.47542628 C-367.31089673 778.74679364 -367.47609179 757.01942298 -367.67853886 735.29155431 C-367.89216648 712.32189625 -368.02395761 689.35275631 -368.06994689 666.38206875 C-368.10012044 652.62576017 -368.19536531 638.87307502 -368.37416227 625.11788215 C-368.49055401 615.68239107 -368.52558313 606.24876989 -368.4970303 596.81261323 C-368.48294831 591.36852909 -368.50434113 585.93076769 -368.62252045 580.48781204 C-369.27800761 548.7403111 -369.27800761 548.7403111 -363.89018297 540.9490037 C-358.87222665 536.16892196 -353.32763943 533.48529439 -346.8682797 531.14504647 C-342.03951942 529.21735618 -337.83630789 526.33423725 -333.5 523.5 C-331.75922825 522.42008578 -330.01604178 521.34404572 -328.26953125 520.2734375 C-321.96092248 516.36794071 -315.70868941 512.37528716 -309.45678711 508.37988281 C-302.52250261 503.95361333 -295.54816477 499.59461584 -288.5625 495.25 C-282.14559003 491.25570274 -275.75902736 487.23797585 -269.5 483 C-262.2358476 478.08145584 -254.79319648 473.4596304 -247.3449707 468.82617188 C-237.70306459 462.82656182 -228.11976401 456.73759235 -218.54858398 450.62597656 C-215.84147448 448.89886197 -213.13178651 447.17583934 -210.421875 445.453125 C-205.62520301 442.40112032 -200.83842518 439.33436015 -196.0625 436.25 C-195.33482422 435.78207031 -194.60714844 435.31414062 -193.85742188 434.83203125 C-193.15294922 434.37699219 -192.44847656 433.92195313 -191.72265625 433.453125 C-191.06410645 433.03095703 -190.40555664 432.60878906 -189.72705078 432.17382812 C-187.85518568 430.95654924 -187.85518568 430.95654924 -185.80859375 429.046875 C-185.21175781 428.70140625 -184.61492188 428.3559375 -184 428 C-180.47111868 429.15623698 -177.44374771 430.83162093 -174.3046875 432.79296875 C-173.42876953 433.33775879 -172.55285156 433.88254883 -171.65039062 434.44384766 C-170.73451172 435.01925293 -169.81863281 435.5946582 -168.875 436.1875 C-167.93591797 436.77321777 -166.99683594 437.35893555 -166.02929688 437.96240234 C-160.38495586 441.48767077 -154.75293556 445.03227812 -149.15625 448.6328125 C-144.83619051 451.61161665 -144.83619051 451.61161665 -140 453.375 C-138 454 -138 454 -135.73999023 456.3046875 C-133.01435173 458.98588228 -130.43103178 460.79014436 -127.16015625 462.75 C-126.32801605 463.25247757 -126.32801605 463.25247757 -125.47906494 463.7651062 C-123.67764518 464.85040701 -121.87021462 465.9252232 -120.0625 467 C-118.80131694 467.75737696 -117.54049726 468.51535931 -116.2800293 469.27392578 C-107.76734565 474.38793817 -99.20569005 479.41864511 -90.63964844 484.44262695 C-81.22739808 489.99183745 -72.08970634 495.94019578 -63 502 C-63.11328125 503.7265625 -63.11328125 503.7265625 -64 506 C-66.03719482 507.63097757 -67.98712385 508.99802163 -70.1875 510.375 C-70.84967529 510.80216309 -71.51185059 511.22932617 -72.1940918 511.66943359 C-73.66463756 512.61515561 -75.13889282 513.55512681 -76.61621094 514.49023438 C-79.07758471 516.04913804 -81.52765984 517.62471225 -83.9765625 519.203125 C-95.25389922 526.44820083 -106.63963052 533.51289538 -118.08129883 540.49462891 C-123.38833271 543.74028034 -128.61889383 547.05619674 -133.77612305 550.53417969 C-137.93752389 553.2770769 -142.22821509 555.8089509 -146.5 558.375 C-156.10300633 564.17813735 -165.57166573 570.16916058 -175.00512695 576.24316406 C-181.72062344 580.56045616 -188.4844581 584.77899026 -195.31445312 588.91210938 C-201.36819654 592.58621934 -207.3445 596.37597029 -213.3125 600.1875 C-226.65323025 608.69917885 -226.65323025 608.69917885 -231.75 611.875 C-232.73484375 612.49117187 -233.7196875 613.10734375 -234.734375 613.7421875 C-237 615 -237 615 -239 615 C-239.34343552 653.81204605 -239.60769519 692.62386297 -239.76597994 731.43712141 C-239.78474024 736.02074619 -239.8041551 740.60436797 -239.82397461 745.18798828 C-239.82790927 746.1004933 -239.83184392 747.01299831 -239.83589781 747.953155 C-239.90114434 762.72287795 -240.01939793 777.49172395 -240.15729194 792.26092689 C-240.29763399 807.41890678 -240.3808955 822.57642786 -240.41132742 837.73503077 C-240.4318969 847.08711452 -240.49681795 856.4367197 -240.618747 865.78804024 C-240.69812539 872.203282 -240.72198391 878.6172453 -240.70252066 885.03294234 C-240.69292244 888.73401675 -240.70746892 892.43076718 -240.78808212 896.13106918 C-241.75140861 910.23662831 -241.75140861 910.23662831 -237.5506165 923.13028765 C-234.13217395 926.48488723 -230.32998851 928.4777598 -225.90173447 930.20625806 C-222.86642085 931.47313088 -220.26389238 933.25428713 -217.515625 935.0546875 C-215.42860839 936.33062286 -213.34004778 937.60403594 -211.25 938.875 C-208.98778941 940.2596134 -206.72607418 941.64503646 -204.46484375 943.03125 C-203.36897949 943.70285156 -202.27311523 944.37445312 -201.14404297 945.06640625 C-190.48966355 951.61887441 -179.93567706 958.31489511 -169.55102539 965.28710938 C-156.61309127 973.97126267 -143.43954599 982.29631066 -130.24755859 990.58740234 C-128.82292096 991.48279159 -127.39871399 992.37886673 -125.97509766 993.27587891 C-119.53624405 997.33263443 -113.08215923 1001.35777476 -106.55859375 1005.27734375 C-95.65069662 1011.83876049 -84.95834558 1018.58007594 -74.51953125 1025.8671875 C-69.07234378 1029.6670524 -63.53169507 1033.32482408 -58 1037 C-56.33528705 1038.11201892 -54.67058153 1039.22404937 -53.0065155 1040.33703613 C-50.72615163 1041.86221071 -48.44472753 1043.38579589 -46.16333008 1044.90942383 C-45.01071179 1045.6795209 -43.85836888 1046.45003027 -42.70629883 1047.22094727 C-35.19803387 1052.2444932 -27.64560074 1057.186872 -20 1062 C-9.18411996 1068.81870698 -9.18411996 1068.81870698 -5.0625 1072 C-2.33588422 1074.24481076 -2.33588422 1074.24481076 -0.07836914 1073.7824707 C2.25641694 1072.90346337 4.20229732 1071.80700921 6.31640625 1070.48046875 C7.15268555 1069.95928467 7.98896484 1069.43810059 8.85058594 1068.90112305 C9.74551758 1068.33562744 10.64044922 1067.77013184 11.5625 1067.1875 C12.4999707 1066.60073486 13.43744141 1066.01396973 14.40332031 1065.40942383 C17.272271 1063.61161575 20.13642524 1061.8063552 23 1060 C24.57664733 1059.01013693 26.15345896 1058.0205355 27.73046875 1057.03125 C43.85720589 1046.8957357 59.89823093 1036.62011542 75.875 1026.25 C82.40451337 1022.01285463 88.97437047 1017.84260417 95.55957031 1013.69262695 C108.20996957 1005.72021326 120.84171949 997.71804008 133.375 989.5625 C141.11329637 984.53125337 148.9399096 979.64549557 156.77368164 974.76464844 C164.56478218 969.90712383 172.32043122 964.99644582 180.0612793 960.05932617 C185.86482086 956.35788774 191.67750217 952.67154252 197.5 949 C204.54859319 944.55255733 211.59027133 940.09434407 218.625 935.625 C219.97561523 934.76841797 219.97561523 934.76841797 221.35351562 933.89453125 C222.21912109 933.34410156 223.08472656 932.79367187 223.9765625 932.2265625 C224.73018066 931.74783691 225.48379883 931.26911133 226.26025391 930.77587891 C227.16437012 930.18983887 228.06848633 929.60379883 229 929 C229.72401861 928.65193131 230.44803721 928.30386262 231.19399577 927.9452464 C234.84366783 925.98564096 237.49832182 924.50170121 238.85124719 920.45191443 C239.19188843 917.18581933 239.24268008 914.01947454 239.20341492 910.73554993 C239.22380493 909.48861758 239.24419493 908.24168523 239.26520282 906.95696706 C239.32018761 903.5023369 239.3190752 900.04966868 239.30845344 896.59470093 C239.30661503 892.86623842 239.35630755 889.13840232 239.39897156 885.41023254 C239.47369306 878.10801058 239.49846323 870.80644239 239.50348296 863.50387011 C239.50776193 857.56627428 239.52626679 851.62889387 239.55478859 845.6913662 C239.63404321 828.84914434 239.67556464 812.00743833 239.66881432 795.16502867 C239.66845472 794.2572904 239.66809511 793.34955213 239.66772461 792.41430664 C239.66735668 791.50545694 239.66698876 790.59660725 239.66660968 789.66021665 C239.66295289 774.9363912 239.74903803 760.21463877 239.87596991 745.49141286 C240.00533919 730.36580613 240.06739652 715.2412096 240.05962592 700.11503571 C240.05664081 691.62566387 240.08123135 683.13846422 240.17822838 674.64959145 C240.2603088 667.41992421 240.27965916 660.193412 240.21864357 652.96347985 C240.18930027 649.27590712 240.18849125 645.59437851 240.26682281 641.90738678 C241.17325725 627.56622964 241.17325725 627.56622964 236.23510003 614.76924109 C232.01196825 611.11104396 227.36913973 608.86420541 222.18156874 606.88258302 C219.00732732 605.59840089 216.30946226 603.85896086 213.4375 602 C212.40367188 601.36320312 211.36984375 600.72640625 210.3046875 600.0703125 C205.81124758 597.25527331 201.36443012 594.37091382 196.91845703 591.48168945 C188.26583581 585.86234883 179.55276459 580.33848965 170.84375 574.80712891 C168.01969871 573.01251801 165.19708392 571.21567158 162.375 569.41796875 C152.79606284 563.31633995 143.21016894 557.2261945 133.6027832 551.16943359 C123.97938981 545.10129772 114.39621579 538.97742069 104.875 532.75 C102.8386767 531.4203661 100.80221754 530.09094023 98.765625 528.76171875 C97.28545898 527.79564697 97.28545898 527.79564697 95.77539062 526.81005859 C89.19674912 522.5195899 82.60369844 518.25178867 76 514 C74.60442871 513.10112061 74.60442871 513.10112061 73.18066406 512.18408203 C59.57102423 503.42568357 45.88973701 494.79886046 32.11328125 486.30566406 C23.39904295 480.92168227 14.86715052 475.27638936 6.35693359 469.578125 C-13.14197677 456.52108828 -13.14197677 456.52108828 -32.80078125 443.70703125 C-35.8283119 441.76009172 -38.84446385 439.7966194 -41.85546875 437.82421875 C-50.51456688 432.15638456 -59.21538744 426.59189521 -68.07006836 421.234375 C-75.05620777 416.99674297 -81.93689119 412.6002348 -88.81884766 408.19604492 C-94.5855936 404.51350086 -100.39311556 400.91208367 -106.25 397.375 C-113.90940222 392.74084009 -121.35408616 387.82381541 -128.78125 382.828125 C-136.50433783 377.63549234 -144.37084468 372.66599634 -152.23046875 367.68359375 C-161.21298917 361.98594074 -170.17714711 356.27593581 -179.00488281 350.34057617 C-183.40651259 347.38296176 -187.86402807 344.52638462 -192.34765625 341.6953125 C-195.13181469 339.91574731 -197.88026798 338.08975253 -200.625 336.25 C-206.94626326 332.01671877 -213.32672246 327.87898589 -219.7265625 323.765625 C-222.51288334 321.97198614 -225.27633701 320.14998081 -228.0234375 318.296875 C-228.96823975 317.66736938 -228.96823975 317.66736938 -229.93212891 317.02514648 C-231.64186422 315.88463409 -233.34461856 314.73367631 -235.046875 313.58203125 C-238.23023644 311.87665905 -239.47730921 311.63360319 -243 312 C-245.35774212 313.11145127 -245.35774212 313.11145127 -247.640625 314.75390625 C-248.53305908 315.35315918 -249.42549316 315.95241211 -250.3449707 316.56982422 C-251.30363037 317.22740723 -252.26229004 317.88499023 -253.25 318.5625 C-261.47571496 324.07424628 -269.78310156 329.34619196 -278.3125 334.375 C-289.24835626 340.85443523 -299.88786285 347.72281908 -310.49609375 354.72265625 C-318.02819123 359.69155161 -325.6299987 364.54880337 -333.23828125 369.39990234 C-337.65987589 372.22021199 -342.07973821 375.0411545 -346.46484375 377.91796875 C-360.4857538 387.11521726 -374.92183093 395.61852915 -389.34375 404.16796875 C-428.25690259 427.00670999 -428.25690259 427.00670999 -457 461 C-457.42168457 461.70624512 -457.84336914 462.41249023 -458.27783203 463.14013672 C-467.68558013 479.19997195 -473.80112566 496.57547951 -477.4375 514.8125 C-477.58944824 515.56192871 -477.74139648 516.31135742 -477.89794922 517.08349609 C-480.92513144 534.11994489 -480.18863081 552.02684103 -480.31640625 569.26171875 C-480.33703465 571.63353284 -480.35803238 574.00534375 -480.37937927 576.37715149 C-480.43399339 582.55332827 -480.48366438 588.72953478 -480.53222656 594.90576172 C-480.58289097 601.23472673 -480.63833995 607.56364974 -480.69335938 613.89257812 C-480.80019637 626.26168269 -480.90179957 638.63082406 -481 651 C-481.57055618 651.00331015 -482.14111237 651.00662029 -482.72895813 651.01003075 C-496.73235962 651.09191586 -510.7356619 651.18420958 -524.73892212 651.28752708 C-531.51131019 651.33725375 -538.28368851 651.38369409 -545.05615234 651.421875 C-551.61151439 651.45918504 -558.16675727 651.50565793 -564.72201538 651.55806351 C-567.20297114 651.57636801 -569.6839522 651.59156061 -572.16494751 651.60334396 C-592.82717039 651.70484033 -613.51957095 652.34814071 -633.875 656.1875 C-635.03008057 656.40108154 -636.18516113 656.61466309 -637.37524414 656.8347168 C-657.25109675 660.6482093 -676.30603588 666.2736879 -695 674 C-695.70237793 674.28311035 -696.40475586 674.5662207 -697.12841797 674.85791016 C-708.17069869 679.32011045 -718.47677636 684.94583967 -728.83984375 690.79296875 C-731.47270919 692.26413588 -734.14093239 693.66310744 -736.8125 695.0625 C-752.07962676 703.41170994 -766.01517957 714.21158928 -778.7890625 725.97265625 C-780.73982911 727.7614334 -782.72980395 729.47843119 -784.75 731.1875 C-799.87370378 744.40923698 -811.92597038 759.61850281 -823.52490234 775.93237305 C-824.47688277 777.26675276 -825.43511259 778.59670633 -826.40087891 779.92114258 C-828.81456398 783.24029691 -830.97055196 786.55327224 -832.875 790.1875 C-835.49830001 795.11714604 -838.29717007 799.91235734 -841.19140625 804.6875 C-843.73216136 809.34097804 -845.85773557 814.15252879 -848 819 C-848.42949951 819.96856934 -848.85899902 820.93713867 -849.30151367 821.93505859 C-880.62521978 893.16398865 -885.84506732 974.77327085 -858.6875 1048.5 C-847.40000161 1076.62859023 -833.18587456 1103.42015766 -814 1127 C-812.62488723 1128.72907699 -811.249882 1130.45823951 -809.875 1132.1875 C-809.23691406 1132.97898437 -808.59882812 1133.77046875 -807.94140625 1134.5859375 C-806.58596373 1136.27137709 -805.2403606 1137.96475618 -803.90234375 1139.6640625 C-803.21269531 1140.53804687 -802.52304687 1141.41203125 -801.8125 1142.3125 C-801.20019531 1143.09238281 -800.58789062 1143.87226562 -799.95703125 1144.67578125 C-797.77037765 1147.27270518 -795.42037148 1149.62009066 -793 1152 C-791.81083984 1153.24136719 -791.81083984 1153.24136719 -790.59765625 1154.5078125 C-783.57956462 1161.75299184 -776.06044313 1167.95200849 -768 1174 C-767.38044434 1174.46970215 -766.76088867 1174.9394043 -766.12255859 1175.42333984 C-753.49195296 1184.98348599 -740.42612967 1193.08753975 -726.15087891 1199.95703125 C-723.96951859 1201.01478054 -721.80302638 1202.09929932 -719.63671875 1203.1875 C-698.67504853 1213.58563043 -676.11766951 1221.94398047 -652.7578125 1224.6484375 C-643.73261054 1225.70583419 -638.08890145 1226.46931925 -631.640625 1233.40234375 C-628.283215 1236.70512134 -624.60066001 1239.06613522 -620.625 1241.5625 C-619.88362793 1242.03107422 -619.14225586 1242.49964844 -618.37841797 1242.98242188 C-616.92050193 1243.90185735 -615.4613834 1244.81938929 -614.00097656 1245.73486328 C-611.30117142 1247.44184111 -608.64915723 1249.2156503 -606 1251 C-599.11707342 1255.6105279 -592.1538743 1260.09490471 -585.19238281 1264.58544922 C-581.68897833 1266.84588636 -578.18809882 1269.11022114 -574.6875 1271.375 C-573.9965625 1271.82190186 -573.305625 1272.26880371 -572.59375 1272.72924805 C-566.13619162 1276.90788558 -559.68899367 1281.1024071 -553.2421875 1285.29760742 C-548.40187164 1288.44540988 -543.55087166 1291.57547327 -538.6875 1294.6875 C-531.39640879 1299.36673006 -524.19671526 1304.17756763 -517 1309 C-507.14391382 1315.60367187 -497.25569447 1322.15302615 -487.3125 1328.625 C-449.60291608 1353.19125175 -449.60291608 1353.19125175 -448 1358 C-449.89624093 1359.89624093 -453.23923454 1359.13044016 -455.75428772 1359.13371277 C-456.8266028 1359.1371111 -456.8266028 1359.1371111 -457.9205808 1359.14057809 C-460.33517215 1359.14694766 -462.74970778 1359.14608677 -465.16430664 1359.14526367 C-466.88903883 1359.1482539 -468.61377035 1359.15165611 -470.33850098 1359.15544128 C-475.04445215 1359.16431361 -479.75038516 1359.16662115 -484.45634389 1359.16725707 C-487.40454183 1359.1679674 -490.35273514 1359.1701017 -493.30093193 1359.17275429 C-503.61200122 1359.18202838 -513.92305754 1359.18608785 -524.23413086 1359.18530273 C-533.79660483 1359.18470597 -543.35902164 1359.19517282 -552.92148119 1359.2110464 C-561.15620594 1359.22422099 -569.3909123 1359.2294823 -577.62564749 1359.22884732 C-582.53144324 1359.22859461 -587.43718858 1359.2313166 -592.34297371 1359.24202538 C-632.30003023 1359.32318237 -632.30003023 1359.32318237 -652 1357 C-653.1413816 1356.86565961 -653.1413816 1356.86565961 -654.30582142 1356.72860527 C-658.71970421 1356.1971522 -663.10950269 1355.57361539 -667.5 1354.875 C-668.15511566 1354.77151245 -668.81023132 1354.6680249 -669.48519897 1354.56140137 C-733.88934801 1344.26011122 -791.84379243 1316.72944623 -843.37548828 1277.24267578 C-844.73254413 1276.20459128 -846.09772579 1275.17714057 -847.46484375 1274.15234375 C-864.50894096 1261.23437808 -881.27833977 1246.31171676 -895.1953125 1230.0859375 C-897.21651276 1227.74974499 -899.29378839 1225.47035149 -901.375 1223.1875 C-905.28694639 1218.85192489 -909.00884185 1214.39215555 -912.6796875 1209.8515625 C-915.10555883 1206.87027281 -917.58185648 1203.93580747 -920.0625 1201 C-937.56917624 1179.96505516 -951.91290831 1155.85948264 -963.12060547 1130.93066406 C-963.95177244 1129.10588106 -964.82050808 1127.29834583 -965.69140625 1125.4921875 C-977.66564383 1100.65467381 -986.78569682 1074.62004632 -993.3046875 1047.85009766 C-993.75444985 1046.00651418 -994.21225251 1044.16486567 -994.6796875 1042.32568359 C-998.85990441 1025.79231096 -1000.70598968 1009.10450048 -1002.37670898 992.17131042 C-1002.76452135 988.24960156 -1003.18910543 984.33880062 -1003.69140625 980.4296875 C-1007.30460881 951.23142745 -1005.42947669 921.11618073 -1002 892 C-1001.92245483 891.33726074 -1001.84490967 890.67452148 -1001.76501465 889.99169922 C-1000.12052303 876.03793538 -997.75760005 862.35849772 -994.70581055 848.64770508 C-994.19246946 846.33488949 -993.68877251 844.02011271 -993.18554688 841.70507812 C-991.4941947 834.01832892 -989.63901115 826.40998315 -987.42578125 818.85546875 C-987.13020576 817.84592888 -987.13020576 817.84592888 -986.82865906 816.81599426 C-985.41960802 812.12887691 -983.74724891 807.57010559 -982 803 C-981.47933877 801.54951206 -980.96165119 800.09794667 -980.44921875 798.64453125 C-973.00126301 778.02124289 -963.38957418 757.82530052 -952.17333984 738.97558594 C-950.83615206 736.72412453 -949.52243388 734.45956661 -948.20703125 732.1953125 C-933.24379351 706.64127528 -915.09587448 682.74710892 -895 661 C-893.70835937 659.57107422 -893.70835937 659.57107422 -892.390625 658.11328125 C-883.67438848 648.47635925 -874.79419038 639.22270251 -864.609375 631.109375 C-862.20319665 629.16426076 -859.90999447 627.14734897 -857.625 625.0625 C-852.6114663 620.56973828 -847.30569051 616.4882516 -841.92529297 612.44970703 C-840.59493672 611.44797543 -839.26868416 610.44077893 -837.94580078 609.42919922 C-824.82654915 599.39927192 -811.15511274 590.49729516 -797 582 C-796.09459473 581.45569336 -795.18918945 580.91138672 -794.25634766 580.35058594 C-760.37227734 560.13156744 -722.71873106 544.02346328 -684 536 C-682.9800293 535.78746582 -681.96005859 535.57493164 -680.90917969 535.35595703 C-666.01411616 532.29091599 -651.10072756 529.79190008 -636 528 C-635.12633789 527.89558594 -634.25267578 527.79117188 -633.35253906 527.68359375 C-630.7985145 527.3834555 -628.24357607 527.09459688 -625.6875 526.8125 C-624.56807007 526.68645386 -624.56807007 526.68645386 -623.42602539 526.55786133 C-618.26158118 526.01898813 -613.19245355 525.93336437 -608 526 C-607.96559814 525.30366455 -607.93119629 524.6073291 -607.89575195 523.88989258 C-604.73586932 463.78353601 -586.80299742 407.87694423 -546.328125 362.49560547 C-545.12089012 361.13613472 -543.93423532 359.75845816 -542.75 358.37890625 C-539.11490311 354.16872568 -535.35292185 350.37954024 -531.1015625 346.79296875 C-528.83801946 344.86180471 -526.67715618 342.84038627 -524.5 340.8125 C-511.48980867 329.14478668 -496.9495643 319.95700781 -482 311 C-481.00516602 310.40372803 -481.00516602 310.40372803 -479.99023438 309.79541016 C-477.64588236 308.39219838 -475.30096771 306.98997227 -472.95288086 305.59301758 C-465.84468431 301.34568142 -458.84986538 296.91537464 -451.8359375 292.51489258 C-446.31838675 289.05816095 -440.78675027 285.63523445 -435.1875 282.3125 C-428.94271506 278.60257222 -422.79811423 274.74556851 -416.6652832 270.85375977 C-411.25203356 267.41909815 -405.82237872 264.01225422 -400.38085938 260.62255859 C-383.31427497 249.99059771 -366.38199827 239.15145927 -349.51196289 228.21069336 C-340.11995544 222.12479822 -330.6830664 216.10865434 -321.25390625 210.08056641 C-314.96377554 206.05862058 -308.67594345 202.03308218 -302.38793945 198.0078125 C-297.1180703 194.63456814 -291.84715749 191.26297567 -286.57421875 187.89453125 C-276.08233418 181.18982854 -265.61007414 174.45824666 -255.18115234 167.65600586 C-249.58787708 164.01454471 -243.9609457 160.43019817 -238.3125 156.875 C-223.28528155 147.40766978 -208.46297907 137.65872421 -193.69467163 127.79354858 C-182.04114442 120.01000006 -170.34364104 112.30038956 -158.58496094 104.67626953 C-155.16052229 102.45562392 -151.73941519 100.22987152 -148.31811523 98.00439453 C-145.84159158 96.39391817 -143.36423754 94.78472618 -140.88671875 93.17578125 C-137.61631856 91.05149133 -134.3482792 88.92363714 -131.08203125 86.79296875 C-122.45832106 81.17066041 -113.812091 75.58646109 -105.125 70.0625 C-104.20630127 69.47831299 -103.28760254 68.89412598 -102.34106445 68.29223633 C-97.78802631 65.39962893 -93.23083333 62.51380006 -88.66796875 59.63671875 C-77.37595775 52.50339969 -66.2153488 45.19154287 -55.12084961 37.75634766 C-47.74591581 32.81595937 -40.32713511 27.94833172 -32.875 23.125 C-21.64829113 15.84354205 -10.36886155 8.4818082 0 0 Z " fill="#000000" transform="translate(1604,624)"/>
<path d="M0 0 C7.71428571 4 7.71428571 4 9 8 C8 9 8 9 4.9375 9.0625 C3.968125 9.041875 2.99875 9.02125 2 9 C2 8.34 2 7.68 2 7 C0.68 6.34 -0.64 5.68 -2 5 C-1.34 3.35 -0.68 1.7 0 0 Z " fill="#0B0B0B" transform="translate(1147,1974)"/>
<path d="M0 0 C0.66 0.66 1.32 1.32 2 2 C1.01 2.33 0.02 2.66 -1 3 C-0.484375 3.391875 0.03125 3.78375 0.5625 4.1875 C1.036875 4.785625 1.51125 5.38375 2 6 C1.6875 8.6875 1.6875 8.6875 1 11 C-0.65 9.68 -2.3 8.36 -4 7 C-3.6875 4.625 -3.6875 4.625 -3 2 C-2.01 1.34 -1.02 0.68 0 0 Z " fill="#EFEFEF" transform="translate(1486,853)"/>
<path d="M0 0 C0.66 0.99 1.32 1.98 2 3 C-1.42388092 6.82669043 -4.00724943 8.72278474 -9 10 C-8.06409496 8.8944811 -7.12620142 7.79064547 -6.1875 6.6875 C-5.66542969 6.07261719 -5.14335938 5.45773437 -4.60546875 4.82421875 C-3.12827531 3.14575321 -1.59960869 1.56117966 0 0 Z " fill="#E4E4E4" transform="translate(821,1352)"/>
<path d="M0 0 C0.66 0 1.32 0 2 0 C2 0.66 2 1.32 2 2 C-3.47619048 7 -3.47619048 7 -6 7 C-6.66 8.32 -7.32 9.64 -8 11 C-8.99 10.34 -9.98 9.68 -11 9 C-9.93458984 8.15115234 -9.93458984 8.15115234 -8.84765625 7.28515625 C-7.92855469 6.55167969 -7.00945313 5.81820313 -6.0625 5.0625 C-5.14597656 4.33160156 -4.22945312 3.60070313 -3.28515625 2.84765625 C-1.59148731 1.48061289 -1.59148731 1.48061289 0 0 Z " fill="#E3E3E3" transform="translate(2456,1892)"/>
<path d="M0 0 C0.66 1.32 1.32 2.64 2 4 C-2.75 7 -2.75 7 -5 7 C-5.33 8.32 -5.66 9.64 -6 11 C-6.99 10.34 -7.98 9.68 -9 9 C-6.03 6.03 -3.06 3.06 0 0 Z " fill="#EDEDED" transform="translate(1167,1059)"/>
<path d="M0 0 C0.33 1.32 0.66 2.64 1 4 C-2.83325617 6.70582788 -5.32538149 7.32613618 -10 7 C-6.80331012 4.3513141 -3.60513403 2.06007659 0 0 Z " fill="#171717" transform="translate(1890,1832)"/>
<path d="M0 0 C0.66 0.99 1.32 1.98 2 3 C0.68 4.32 -0.64 5.64 -2 7 C-3.32 6.34 -4.64 5.68 -6 5 C-2.25 1.125 -2.25 1.125 0 0 Z " fill="#111111" transform="translate(2117,1936)"/>
<path d="M0 0 C1.65 0 3.3 0 5 0 C5.66 1.98 6.32 3.96 7 6 C4.69 5.34 2.38 4.68 0 4 C0 2.68 0 1.36 0 0 Z " fill="#E9E9E9" transform="translate(888,1826)"/>
<path d="M0 0 C0.66 0.33 1.32 0.66 2 1 C-2.625 6.875 -2.625 6.875 -6 8 C-6.66 7.67 -7.32 7.34 -8 7 C-8 6.34 -8 5.68 -8 5 C-6.3203125 3.67578125 -6.3203125 3.67578125 -4.125 2.3125 C-3.40570312 1.85488281 -2.68640625 1.39726563 -1.9453125 0.92578125 C-1.30335937 0.62027344 -0.66140625 0.31476562 0 0 Z " fill="#E8E8E8" transform="translate(1593,784)"/>
<path d="M0 0 C0 0.66 0 1.32 0 2 C-0.66 2 -1.32 2 -2 2 C-2 2.66 -2 3.32 -2 4 C-2.99 4 -3.98 4 -5 4 C-5.33 4.99 -5.66 5.98 -6 7 C-7.98 7.33 -9.96 7.66 -12 8 C-4.57142857 0 -4.57142857 0 0 0 Z " fill="#171717" transform="translate(2183,1894)"/>
<path d="M0 0 C1.98 1.65 3.96 3.3 6 5 C3.35261084 6.4606285 2.10551666 7 -1 7 C-1 4.37886292 -0.68707555 2.49064888 0 0 Z " fill="#F4F4F4" transform="translate(2394,1360)"/>
<path d="M0 0 C0.33 0.66 0.66 1.32 1 2 C-1.88406243 5.40843742 -3.3708265 6.86591384 -7.8125 7.8125 C-9.3903125 7.9053125 -9.3903125 7.9053125 -11 8 C-7.45960866 5.0843836 -3.8373228 2.49872182 0 0 Z " fill="#131313" transform="translate(1263,1152)"/>
<path d="M0 0 C0.33 0.66 0.66 1.32 1 2 C-0.04109483 4.56269497 -1.02610343 6.02610343 -3 8 C-7 8 -7 8 -9 7 C-6.03 4.69 -3.06 2.38 0 0 Z " fill="#E9E9E9" transform="translate(1177,1051)"/>
<path d="M0 0 C3.465 1.98 3.465 1.98 7 4 C6.67 4.66 6.34 5.32 6 6 C3.33333333 5.33333333 0.66666667 4.66666667 -2 4 C-1.34 2.68 -0.68 1.36 0 0 Z " fill="#141414" transform="translate(1147,1974)"/>
<path d="M0 0 C0.66 0.66 1.32 1.32 2 2 C0.02 2.99 0.02 2.99 -2 4 C-2 3.01 -2 2.02 -2 1 C-1.34 0.67 -0.68 0.34 0 0 Z M-3 3 C-4 6 -4 6 -6.0625 7.1875 C-6.701875 7.455625 -7.34125 7.72375 -8 8 C-8.66 7.34 -9.32 6.68 -10 6 C-5.25 3 -5.25 3 -3 3 Z " fill="#E4E4E4" transform="translate(1447,1188)"/>
<path d="M0 0 C3.3 1.98 6.6 3.96 10 6 C9.34 6.66 8.68 7.32 8 8 C5.125 6.8125 5.125 6.8125 2 5 C1.34 3.35 0.68 1.7 0 0 Z " fill="#111111" transform="translate(1562,1672)"/>
<path d="M0 0 C3.465 1.98 3.465 1.98 7 4 C6.67 4.66 6.34 5.32 6 6 C5.01 6.33 4.02 6.66 3 7 C2.34 6.67 1.68 6.34 1 6 C0.375 2.9375 0.375 2.9375 0 0 Z " fill="#0D0D0D" transform="translate(1473,1615)"/>
<path d="M0 0 C0.66 0.33 1.32 0.66 2 1 C0.68 4.3 -0.64 7.6 -2 11 C-2.66 10.67 -3.32 10.34 -4 10 C-3.43454163 6.04179141 -2.19097652 3.3340947 0 0 Z " fill="#121212" transform="translate(748,1456)"/>
<path d="M0 0 C1.98 0.66 3.96 1.32 6 2 C6 2.99 6 3.98 6 5 C5.01 5.33 4.02 5.66 3 6 C1.68 4.35 0.36 2.7 -1 1 C-0.67 0.67 -0.34 0.34 0 0 Z " fill="#F1F1F1" transform="translate(1338,1097)"/>
<path d="M0 0 C0 0.66 0 1.32 0 2 C-1.30582947 3.03565785 -2.64377755 4.03126968 -4 5 C-4.804375 5.8353125 -4.804375 5.8353125 -5.625 6.6875 C-7 8 -7 8 -9 8 C-9.33 7.01 -9.66 6.02 -10 5 C-8.71186658 4.16121545 -7.41936744 3.32913217 -6.125 2.5 C-5.40570312 2.0359375 -4.68640625 1.571875 -3.9453125 1.09375 C-2 0 -2 0 0 0 Z " fill="#161616" transform="translate(1364,783)"/>
<path d="M0 0 C4.875 1.75 4.875 1.75 6 4 C4.02 4.99 4.02 4.99 2 6 C1.01 5.34 0.02 4.68 -1 4 C-0.67 2.68 -0.34 1.36 0 0 Z " fill="#F1F1F1" transform="translate(1258,1944)"/>
<path d="M0 0 C0.5534764 2.07553648 1 3.84365964 1 6 C0 7 -1 8 -2 9 C-2.33 9.99 -2.66 10.98 -3 12 C-3.66 11.67 -4.32 11.34 -5 11 C-3.55049545 7.2089881 -1.84827434 3.6125362 0 0 Z " fill="#1A1A1A" transform="translate(2446,1706)"/>
<path d="M0 0 C1.98 0.99 3.96 1.98 6 3 C6 3.66 6 4.32 6 5 C4.1875 5.6875 4.1875 5.6875 2 6 C0.25 4.5625 0.25 4.5625 -1 3 C-0.67 2.01 -0.34 1.02 0 0 Z " fill="#EBEBEB" transform="translate(1817,1225)"/>
<path d="M0 0 C0.99 0.33 1.98 0.66 3 1 C2.67 2.65 2.34 4.3 2 6 C2.66 6.33 3.32 6.66 4 7 C3.67 7.66 3.34 8.32 3 9 C2.34 9 1.68 9 1 9 C-1.09230769 4.56923077 -1.09230769 4.56923077 -0.625 1.6875 C-0.41875 1.130625 -0.2125 0.57375 0 0 Z " fill="#EBEBEB" transform="translate(2194,1060)"/>
<path d="M0 0 C1.8125 1.5 1.8125 1.5 3 3 C2.67 3.66 2.34 4.32 2 5 C0.68 4.34 -0.64 3.68 -2 3 C-2 2.34 -2 1.68 -2 1 C-2.99 1.66 -3.98 2.32 -5 3 C-5.99 2.67 -6.98 2.34 -8 2 C-4.76746204 -0.15502531 -3.74849077 -0.46856135 0 0 Z " fill="#EDEDED" transform="translate(1366,935)"/>
<path d="M0 0 C1.125 1.75 1.125 1.75 2 4 C1.125 6.25 1.125 6.25 0 8 C-0.99 7.67 -1.98 7.34 -3 7 C-2.25 2.25 -2.25 2.25 0 0 Z " fill="#E5E5E5" transform="translate(1727,1771)"/>
<path d="M0 0 C1.65 0.99 3.3 1.98 5 3 C2.42786866 4.61949011 1.32330841 5.04408751 -1.75 4.625 C-2.4925 4.41875 -3.235 4.2125 -4 4 C-3 2 -3 2 0 0 Z " fill="#101010" transform="translate(1125,1706)"/>
<path d="M0 0 C4.455 0.99 4.455 0.99 9 2 C8.67 2.66 8.34 3.32 8 4 C6.35 4 4.7 4 3 4 C2.67 4.99 2.34 5.98 2 7 C1.34 4.69 0.68 2.38 0 0 Z " fill="#191919" transform="translate(2285,1160)"/>
<path d="M0 0 C3.465 1.98 3.465 1.98 7 4 C7 4.99 7 5.98 7 7 C5.68 6.34 4.36 5.68 3 5 C2.34 5.66 1.68 6.32 1 7 C1 6.01 1 5.02 1 4 C0.6937566 2.66018514 0.36548445 1.32488113 0 0 Z " fill="#141414" transform="translate(1728,705)"/>
<path d="M0 0 C0.66 0.33 1.32 0.66 2 1 C0.93106782 2.03590338 -0.15578488 3.05333942 -1.25 4.0625 C-2.15492187 4.91521484 -2.15492187 4.91521484 -3.078125 5.78515625 C-4.02945312 6.38650391 -4.02945312 6.38650391 -5 7 C-6.32 6.67 -7.64 6.34 -9 6 C-6.03 4.02 -3.06 2.04 0 0 Z " fill="#DFDFDF" transform="translate(1829,2023)"/>
<path d="M0 0 C0.66 0 1.32 0 2 0 C2 1.65 2 3.3 2 5 C-0.66666667 5 -3.33333333 5 -6 5 C-5.195625 4.360625 -4.39125 3.72125 -3.5625 3.0625 C-1.7249496 1.59396498 -1.7249496 1.59396498 0 0 Z " fill="#EEEEEE" transform="translate(1838,2017)"/>
<path d="M0 0 C7.57142857 4.14285714 7.57142857 4.14285714 10 7 C9.01 7.495 9.01 7.495 8 8 C6.66102417 7.04956626 5.32894573 6.08940853 4 5.125 C3.2575 4.59132813 2.515 4.05765625 1.75 3.5078125 C1.1725 3.01023437 0.595 2.51265625 0 2 C0 1.34 0 0.68 0 0 Z " fill="#151515" transform="translate(1572,1995)"/>
<path d="M0 0 C2.64 0 5.28 0 8 0 C8.33 0.99 8.66 1.98 9 3 C7.3125 3.75 7.3125 3.75 5 4 C2.25 2.0625 2.25 2.0625 0 0 Z " fill="#E9E9E9" transform="translate(1135,1965)"/>
<path d="M0 0 C0.66 0.66 1.32 1.32 2 2 C1.01 4.64 0.02 7.28 -1 10 C-1.66 10 -2.32 10 -3 10 C-2.49287967 6.28111761 -1.88391785 3.26545761 0 0 Z " fill="#111111" transform="translate(1133,1108)"/>
<path d="M0 0 C2.97 1.65 5.94 3.3 9 5 C8.34 5.66 7.68 6.32 7 7 C3.05544612 4.92391901 2.08899822 4.17799643 0 0 Z " fill="#131313" transform="translate(2025,897)"/>
<path d="M0 0 C2.375 0.3125 2.375 0.3125 5 1 C5.66 1.99 6.32 2.98 7 4 C5.35 4.66 3.7 5.32 2 6 C1.34 4.02 0.68 2.04 0 0 Z " fill="#EBEBEB" transform="translate(1273,833)"/>
<path d="M0 0 C0.66 0.66 1.32 1.32 2 2 C-0.31 3.32 -2.62 4.64 -5 6 C-4.67 4.35 -4.34 2.7 -4 1 C-2.125 0.375 -2.125 0.375 0 0 Z " fill="#E9E9E9" transform="translate(1961,1785)"/>
<path d="M0 0 C0.33 0.99 0.66 1.98 1 3 C-4.625 5.125 -4.625 5.125 -8 4 C-2.25 0 -2.25 0 0 0 Z M-10 5 C-8 6 -8 6 -8 6 Z " fill="#E9E9E9" transform="translate(1847,1696)"/>
<path d="M0 0 C2.475 0.99 2.475 0.99 5 2 C3.35 3.65 1.7 5.3 0 7 C-1.125 2.25 -1.125 2.25 0 0 Z " fill="#EAEAEA" transform="translate(1321,1671)"/>
<path d="M0 0 C0.66 0.33 1.32 0.66 2 1 C0.35 2.98 -1.3 4.96 -3 7 C-3.99 6.01 -4.98 5.02 -6 4 C-4.02 2.68 -2.04 1.36 0 0 Z " fill="#101010" transform="translate(1809,1568)"/>
<path d="M0 0 C2.97 1.98 2.97 1.98 6 4 C5.67 4.66 5.34 5.32 5 6 C2.11562221 4.70700306 0.12780579 3.34058637 -2 1 C-1.34 0.67 -0.68 0.34 0 0 Z " fill="#D8D8D8" transform="translate(2444,1231)"/>
<path d="M0 0 C0.66 0.33 1.32 0.66 2 1 C-1.07999946 4.67230705 -3.2482602 5.56802365 -8 6 C-5.38485683 3.87961365 -2.80362384 1.86908256 0 0 Z " fill="#E1E1E1" transform="translate(1402,1216)"/>
<path d="M0 0 C3.465 1.98 3.465 1.98 7 4 C5.1875 5.0625 5.1875 5.0625 3 6 C2.01 5.67 1.02 5.34 0 5 C0 3.35 0 1.7 0 0 Z " fill="#131313" transform="translate(1863,1105)"/>
<path d="M0 0 C1.32 1.32 2.64 2.64 4 4 C3.01 4.99 2.02 5.98 1 7 C1 6.34 1 5.68 1 5 C0.34 5 -0.32 5 -1 5 C-0.67 3.35 -0.34 1.7 0 0 Z " fill="#0F0F0F" transform="translate(1604,624)"/>
<path d="M0 0 C3.465 1.98 3.465 1.98 7 4 C6.34 4.66 5.68 5.32 5 6 C4.34 5.67 3.68 5.34 3 5 C2.67 5.66 2.34 6.32 2 7 C1.34 4.69 0.68 2.38 0 0 Z " fill="#EDEDED" transform="translate(1334,1993)"/>
<path d="M0 0 C0.33 1.32 0.66 2.64 1 4 C-0.98 4.66 -2.96 5.32 -5 6 C-5.66 5.34 -6.32 4.68 -7 4 C-4.69 2.68 -2.38 1.36 0 0 Z " fill="#161616" transform="translate(2131,1927)"/>
<path d="M0 0 C2.97 0.495 2.97 0.495 6 1 C6.33 2.65 6.66 4.3 7 6 C3.535 4.02 3.535 4.02 0 2 C0 1.34 0 0.68 0 0 Z " fill="#E9E9E9" transform="translate(1409,1889)"/>
<path d="M0 0 C0.99 0.33 1.98 0.66 3 1 C4.1875 3.5625 4.1875 3.5625 5 6 C4.01 6 3.02 6 2 6 C0.3125 3.5 0.3125 3.5 -1 1 C-0.67 0.67 -0.34 0.34 0 0 Z " fill="#151515" transform="translate(697,1837)"/>
<path d="M0 0 C0.66 0 1.32 0 2 0 C2.66 1.65 3.32 3.3 4 5 C2.125 5.625 2.125 5.625 0 6 C-0.66 5.34 -1.32 4.68 -2 4 C-1.34 2.68 -0.68 1.36 0 0 Z " fill="#F0F0F0" transform="translate(1332,1835)"/>
<path d="M0 0 C0.66 0 1.32 0 2 0 C0.7508258 3.45925163 -0.67527795 6.14693203 -3 9 C-3.75 7.3125 -3.75 7.3125 -4 5 C-2.1875 2.25 -2.1875 2.25 0 0 Z " fill="#181818" transform="translate(2553,1774)"/>
<path d="M0 0 C0.66 0.33 1.32 0.66 2 1 C-0.48952921 3.66735273 -2.63408134 5.55746343 -6 7 C-6.66 6.34 -7.32 5.68 -8 5 C-6.71475739 4.13619741 -5.42157581 3.28419631 -4.125 2.4375 C-3.04605469 1.72400391 -3.04605469 1.72400391 -1.9453125 0.99609375 C-1.30335937 0.66738281 -0.66140625 0.33867188 0 0 Z " fill="#E4E4E4" transform="translate(1830,1705)"/>
<path d="M0 0 C1.98 0.99 3.96 1.98 6 3 C4.68 4.32 3.36 5.64 2 7 C1.34 4.69 0.68 2.38 0 0 Z " fill="#111111" transform="translate(1999,880)"/>
<path d="M0 0 C2.97 1.65 5.94 3.3 9 5 C8.34 5.66 7.68 6.32 7 7 C5.82780457 6.21654285 4.66236332 5.42297164 3.5 4.625 C2.8503125 4.18414063 2.200625 3.74328125 1.53125 3.2890625 C1.0259375 2.86367187 0.520625 2.43828125 0 2 C0 1.34 0 0.68 0 0 Z " fill="#1B1B1B" transform="translate(1436,1908)"/>
<path d="M0 0 C1.98 0.99 3.96 1.98 6 3 C5.67 3.99 5.34 4.98 5 6 C3.02 4.68 1.04 3.36 -1 2 C-0.67 1.34 -0.34 0.68 0 0 Z " fill="#101010" transform="translate(1764,1803)"/>
<path d="M0 0 C1.32 1.32 2.64 2.64 4 4 C3.01 4.66 2.02 5.32 1 6 C0.01 4.68 -0.98 3.36 -2 2 C-1.34 1.34 -0.68 0.68 0 0 Z " fill="#ECECEC" transform="translate(826,1786)"/>
<path d="M0 0 C2.475 0.99 2.475 0.99 5 2 C5 3.32 5 4.64 5 6 C3.2925002 4.71937515 1.62626404 3.38232443 0 2 C0 1.34 0 0.68 0 0 Z " fill="#121212" transform="translate(1573,1680)"/>
<path d="M0 0 C1.65 0.99 3.3 1.98 5 3 C4.67 3.99 4.34 4.98 4 6 C2.68 5.67 1.36 5.34 0 5 C0 3.35 0 1.7 0 0 Z " fill="#141414" transform="translate(1503,1633)"/>
<path d="M0 0 C2.64 0.66 5.28 1.32 8 2 C7.67 2.66 7.34 3.32 7 4 C2.25 3.125 2.25 3.125 0 2 C0 1.34 0 0.68 0 0 Z " fill="#252525" transform="translate(2320,1170)"/>
<path d="M0 0 C0.99 0.99 1.98 1.98 3 3 C1.60804085 5.7839183 -0.15575779 5.97898997 -3 7 C-1.125 2.25 -1.125 2.25 0 0 Z " fill="#E3E3E3" transform="translate(1147,1083)"/>
<path d="M0 0 C-0.66 1.32 -1.32 2.64 -2 4 C-3.65 2.68 -5.3 1.36 -7 0 C-4.3333581 -1.33332095 -2.83319697 -0.67102033 0 0 Z " fill="#E4E4E4" transform="translate(1676,980)"/>
<path d="M0 0 C0.66 0.33 1.32 0.66 2 1 C0.35 2.65 -1.3 4.3 -3 6 C-3.99 5.34 -4.98 4.68 -6 4 C-4.02 2.68 -2.04 1.36 0 0 Z " fill="#171717" transform="translate(1214,878)"/>
<path d="M0 0 C0.66 0.66 1.32 1.32 2 2 C1.67 2.66 1.34 3.32 1 4 C0.34 4 -0.32 4 -1 4 C-1.33 4.66 -1.66 5.32 -2 6 C-2.99 5.01 -3.98 4.02 -5 3 C-3.35 2.01 -1.7 1.02 0 0 Z " fill="#E3E3E3" transform="translate(1743,2078)"/>
<path d="M0 0 C0.33 0.66 0.66 1.32 1 2 C-1 5 -1 5 -4.125 5.6875 C-5.07375 5.790625 -6.0225 5.89375 -7 6 C-4.74259377 3.66475218 -2.7194239 1.81294927 0 0 Z " fill="#141414" transform="translate(2065,1970)"/>
<path d="M0 0 C1.98 0.99 3.96 1.98 6 3 C4.68 3.99 3.36 4.98 2 6 C1.01 5.34 0.02 4.68 -1 4 C-0.34 4 0.32 4 1 4 C0.67 2.68 0.34 1.36 0 0 Z " fill="#191919" transform="translate(1495,1945)"/>
<path d="M0 0 C0.66 0 1.32 0 2 0 C1.67 0.99 1.34 1.98 1 3 C0.34 2.34 -0.32 1.68 -1 1 C-0.67 0.67 -0.34 0.34 0 0 Z M-1 2 C-2 5 -2 5 -5 7 C-5 5.68 -5 4.36 -5 3 C-3 2 -3 2 -1 2 Z " fill="#E7E7E7" transform="translate(1957,1941)"/>
<path d="M0 0 C2.475 0.99 2.475 0.99 5 2 C3.68 3.32 2.36 4.64 1 6 C0.34 5.34 -0.32 4.68 -1 4 C-0.625 1.875 -0.625 1.875 0 0 Z " fill="#141414" transform="translate(1431,1905)"/>
<path d="M0 0 C1.65 0 3.3 0 5 0 C5.33 1.32 5.66 2.64 6 4 C3 4 3 4 0 2 C0 1.34 0 0.68 0 0 Z " fill="#E9E9E9" transform="translate(1009,1881)"/>
<path d="M0 0 C0.33 0.99 0.66 1.98 1 3 C-0.875 4.0625 -0.875 4.0625 -3 5 C-3.66 4.67 -4.32 4.34 -5 4 C-5 3.34 -5 2.68 -5 2 C-2 0 -2 0 0 0 Z " fill="#101010" transform="translate(2031,1743)"/>
<path d="M0 0 C0.66 0.66 1.32 1.32 2 2 C1.01 3.98 0.02 5.96 -1 8 C-1.66 7.67 -2.32 7.34 -3 7 C-1.125 1.125 -1.125 1.125 0 0 Z " fill="#131313" transform="translate(2574,1729)"/>
<path d="M0 0 C0.66 0.66 1.32 1.32 2 2 C1.34 2 0.68 2 0 2 C-0.66 3.32 -1.32 4.64 -2 6 C-3.32 5.34 -4.64 4.68 -6 4 C-4.02 2.68 -2.04 1.36 0 0 Z " fill="#E7E7E7" transform="translate(1806,1720)"/>
<path d="M0 0 C0 0.66 0 1.32 0 2 C-0.66 2 -1.32 2 -2 2 C-2.33 2.66 -2.66 3.32 -3 4 C-3.99 4.66 -4.98 5.32 -6 6 C-6.33 5.01 -6.66 4.02 -7 3 C-3.375 0 -3.375 0 0 0 Z " fill="#E8E8E8" transform="translate(846,1334)"/>
<path d="M0 0 C1.65 0 3.3 0 5 0 C5 1.65 5 3.3 5 5 C3.02 4.01 1.04 3.02 -1 2 C-0.67 1.34 -0.34 0.68 0 0 Z " fill="#F1F1F1" transform="translate(1922,1141)"/>
<path d="M0 0 C1.7074998 1.28062485 3.37373596 2.61767557 5 4 C5 4.66 5 5.32 5 6 C4.34 6 3.68 6 3 6 C2.67 6.66 2.34 7.32 2 8 C0 2.25 0 2.25 0 0 Z " fill="#F3F3F3" transform="translate(2048,1067)"/>
<path d="M0 0 C0.86625 0.3403125 0.86625 0.3403125 1.75 0.6875 C0.1 2.0075 -1.55 3.3275 -3.25 4.6875 C-4.24 4.0275 -5.23 3.3675 -6.25 2.6875 C-2.80384615 -0.38942308 -2.80384615 -0.38942308 0 0 Z " fill="#0F0F0F" transform="translate(1215.25,1025.3125)"/>
<path d="M0 0 C2.475 0.99 2.475 0.99 5 2 C4.67 2.99 4.34 3.98 4 5 C3.67 4.34 3.34 3.68 3 3 C2.34 3 1.68 3 1 3 C0.67 3.66 0.34 4.32 0 5 C-0.5625 3.0625 -0.5625 3.0625 -1 1 C-0.67 0.67 -0.34 0.34 0 0 Z " fill="#0D0D0D" transform="translate(1680,675)"/>
</svg>
